<?xml version="1.0" standalone="no"?>
<!DOCTYPE svg PUBLIC "-//W3C//DTD SVG 20010904//EN"
 "http://www.w3.org/TR/2001/REC-SVG-20010904/DTD/svg10.dtd">
<svg version="1.0" xmlns="http://www.w3.org/2000/svg"
 width="713.000000pt" height="762.000000pt" viewBox="0 0 713.000000 762.000000"
 preserveAspectRatio="xMidYMid meet">
<metadata>
Created by potrace 1.16, written by Peter Selinger 2001-2019
</metadata>
<g transform="translate(0.000000,762.000000) scale(0.100000,-0.100000)"
fill="#000000" stroke="none">
<path d="M4384 7195 c-9 -21 4 -65 19 -65 14 -1 63 -66 95 -125 75 -143 87
-282 35 -400 -17 -38 -34 -88 -38 -110 -4 -22 -23 -87 -42 -145 -38 -115 -38
-108 -13 -345 11 -105 18 -148 55 -310 43 -197 44 -208 46 -495 1 -157 0 -296
-3 -310 -15 -75 -24 -100 -59 -177 -45 -98 -94 -173 -114 -173 -8 0 -30 11
-50 24 -20 14 -55 32 -79 41 -42 16 -46 16 -91 -4 -26 -12 -54 -21 -61 -21 -7
0 -18 -9 -24 -20 -6 -11 -16 -20 -23 -20 -23 0 -73 63 -111 140 -58 116 -96
146 -164 128 -29 -8 -38 -19 -65 -75 l-31 -67 17 -63 c47 -179 241 -276 334
-168 15 17 28 23 36 18 42 -26 167 -130 167 -139 0 -6 -19 -39 -42 -74 -96
-142 -91 -124 -90 -320 1 -113 -3 -196 -12 -231 -17 -74 -76 -178 -137 -242
-27 -28 -49 -54 -49 -57 0 -3 -14 -14 -31 -24 -17 -10 -61 -41 -97 -68 -79
-60 -201 -118 -248 -118 -18 0 -45 -5 -61 -11 -15 -6 -50 -11 -76 -10 -27 0
-61 -6 -75 -13 -15 -8 -60 -19 -101 -25 -40 -6 -82 -16 -92 -22 -10 -5 -36
-12 -56 -14 -21 -2 -48 -7 -60 -11 -20 -5 -23 -3 -23 19 0 38 -24 124 -54 190
-32 71 -32 78 -1 115 48 57 115 73 115 28 0 -79 61 -186 107 -186 49 0 113 49
113 87 0 54 -72 144 -133 166 -24 9 -21 20 12 45 48 35 117 48 141 27 11 -10
20 -26 20 -36 0 -10 4 -20 9 -23 4 -3 11 -24 15 -47 9 -54 41 -115 68 -130 35
-19 124 -4 172 28 134 91 166 230 89 394 -31 65 -36 88 -23 104 21 25 33 18
116 -61 95 -90 124 -108 173 -101 109 15 148 49 138 121 -19 136 -151 276
-261 276 -38 0 -96 -45 -96 -74 0 -8 -7 -17 -16 -20 -13 -5 -15 9 -13 112 2
127 -9 186 -41 220 -25 26 -34 27 -89 7 -144 -50 -152 -156 -29 -383 l50 -94
-28 -29 c-73 -77 -239 -114 -329 -74 -45 19 -84 51 -74 58 2 2 28 20 57 41 57
41 131 140 142 190 11 50 -53 146 -96 146 -10 0 -7 11 13 41 53 80 27 202 -59
274 -59 50 -214 22 -239 -43 -6 -15 -15 -35 -20 -44 -21 -41 13 -133 74 -203
l44 -50 -33 -44 c-22 -28 -34 -55 -34 -75 0 -43 25 -138 49 -185 l20 -38 -22
-9 c-12 -5 -61 -8 -109 -6 l-88 3 0 56 c0 65 -27 223 -41 237 -5 6 -9 18 -9
27 0 51 -108 125 -167 114 -83 -15 -181 -100 -225 -193 -19 -41 -33 -60 -41
-55 -42 25 -245 173 -256 187 -7 9 -18 16 -24 16 -5 0 -30 17 -55 38 -25 20
-53 42 -61 48 -13 10 -10 14 15 27 52 27 118 101 132 149 36 121 -80 252 -205
233 -78 -11 -127 -38 -162 -88 -33 -49 -37 -67 -20 -99 6 -11 8 -22 5 -25 -9
-9 -119 82 -165 136 -23 29 -59 63 -80 76 -36 23 -249 229 -326 315 -59 66
-250 242 -325 298 -61 46 -138 125 -220 223 -19 23 -62 60 -95 80 -54 35 -61
37 -75 23 -13 -14 -12 -17 10 -35 14 -12 51 -44 83 -72 33 -29 65 -57 72 -62
7 -6 23 -26 36 -45 29 -41 112 -120 189 -177 30 -22 94 -78 141 -124 47 -46
94 -91 105 -99 10 -8 37 -35 58 -60 61 -71 137 -148 242 -245 53 -49 131 -123
172 -162 41 -40 79 -73 84 -73 4 0 16 -8 26 -17 57 -56 219 -187 368 -298 131
-98 170 -126 245 -176 75 -50 76 -52 72 -88 -7 -51 -32 -90 -82 -128 -58 -45
-66 -42 -81 25 -30 138 -134 248 -215 228 -49 -13 -115 -96 -115 -147 0 -103
109 -222 217 -237 25 -4 48 -12 50 -18 2 -6 -16 -35 -40 -63 -25 -29 -47 -64
-50 -79 -4 -18 -20 -36 -46 -52 -32 -19 -45 -37 -62 -80 l-21 -55 21 -110 c38
-191 39 -171 -7 -178 -24 -4 -59 -22 -91 -48 -183 -145 -94 -436 126 -416 78
8 119 29 172 90 41 49 46 62 42 129 -2 33 0 38 26 44 15 3 35 8 44 10 9 3 36
-15 65 -43 76 -73 187 -113 312 -113 84 0 84 -1 60 -105 -11 -50 -27 -121 -34
-160 -23 -110 -31 -145 -54 -220 -11 -38 -27 -108 -35 -155 -7 -47 -19 -105
-25 -130 -6 -25 -17 -93 -25 -151 -19 -146 -52 -208 -91 -169 -21 21 -129 24
-178 5 -76 -29 -123 -117 -107 -200 13 -70 59 -158 94 -183 38 -25 127 -35
167 -18 31 14 114 68 118 79 8 17 30 4 50 -30 11 -21 41 -58 66 -83 25 -24 46
-49 46 -55 0 -5 17 -20 38 -31 20 -12 62 -45 92 -73 69 -64 223 -178 253 -187
39 -12 47 -23 35 -50 -6 -13 -14 -24 -18 -24 -19 0 -42 -80 -35 -121 12 -73
77 -168 137 -200 49 -26 220 69 246 138 32 86 20 153 -40 213 -22 22 -44 40
-49 40 -25 0 -3 20 38 36 34 13 74 45 140 111 51 51 100 93 109 93 18 0 48 22
128 91 29 26 78 64 107 86 30 22 60 47 68 56 22 27 32 21 131 -78 52 -53 112
-107 133 -122 43 -30 45 -40 12 -71 -35 -34 -48 -85 -42 -162 9 -104 29 -144
93 -180 63 -35 101 -38 137 -10 14 11 29 20 34 20 4 0 25 11 46 25 50 35 82
103 82 177 l-1 56 41 -23 c71 -42 143 -64 216 -69 74 -4 92 0 204 53 123 58
175 73 175 49 0 -21 88 -127 123 -149 74 -47 212 -1 275 91 36 54 30 89 -34
168 -57 72 -116 106 -198 114 -25 3 -31 9 -42 46 -6 24 -19 58 -28 76 -20 43
-21 38 14 113 17 36 33 77 36 92 6 28 10 30 199 77 115 28 175 69 198 137 10
28 40 19 70 -22 20 -29 34 -71 52 -163 36 -174 69 -218 164 -218 44 0 59 -13
59 -52 -1 -50 39 -113 95 -150 78 -53 91 -58 154 -58 70 0 104 23 163 110 35
52 45 77 55 144 7 43 -63 110 -124 120 -63 10 -65 14 -34 54 78 103 4 442 -97
442 -11 0 -22 12 -29 31 -17 50 -70 108 -123 135 -62 32 -75 61 -49 112 22 43
58 83 120 131 68 54 169 179 188 232 l17 48 34 -26 c34 -25 122 -52 176 -53
36 0 99 49 131 104 51 87 -6 224 -113 272 -102 45 -194 33 -237 -32 -25 -38
-42 -29 -79 46 -113 225 -240 274 -370 142 -58 -58 -70 -95 -62 -182 l7 -67
-41 -36 c-66 -60 -78 -51 -104 76 -18 88 -24 71 66 204 26 39 48 75 48 79 0 4
9 17 19 28 49 53 81 140 81 220 0 78 -30 214 -56 251 -21 30 -17 42 19 55 65
22 126 105 142 194 10 49 -34 162 -80 206 -39 38 -123 56 -208 46 -68 -9 -85
-27 -115 -129 -25 -83 -22 -114 18 -178 16 -27 30 -51 30 -54 0 -3 -19 -5 -42
-5 -79 0 -166 -36 -233 -95 -17 -14 -46 -35 -66 -45 -65 -34 -169 -177 -169
-232 0 -21 -99 -208 -132 -250 l-29 -37 -37 22 c-54 32 -170 144 -197 191 -50
86 -91 226 -67 226 5 0 19 -11 32 -25 37 -40 145 -105 182 -112 28 -4 96 16
98 30 12 67 10 76 -29 148 -27 48 -60 90 -95 121 -52 45 -55 47 -91 37 -20 -6
-56 -28 -80 -50 -23 -21 -46 -39 -52 -39 -11 0 -87 142 -112 212 -23 62 -41
228 -39 343 2 86 -17 139 -93 253 l-29 43 38 52 c106 145 143 258 157 481 3
44 7 82 10 84 2 2 13 -5 25 -16 53 -49 172 -30 209 33 25 44 45 143 39 198 -5
41 -75 173 -105 198 -26 22 -102 30 -134 14 -16 -9 -29 -20 -29 -25 0 -6 -7
-10 -15 -10 -9 0 -16 14 -20 38 -3 20 -13 64 -20 97 -47 199 -65 302 -85 487
-12 108 -2 169 40 258 4 9 11 36 15 60 4 25 25 89 46 144 42 105 50 186 28
271 -5 22 -14 54 -18 72 -10 35 -87 173 -136 240 -31 44 -52 53 -61 28z m386
-1747 c94 -129 91 -269 -6 -329 -39 -24 -76 -16 -111 24 -18 20 -17 20 2 13
45 -18 55 -18 61 -1 5 13 -5 29 -38 59 -65 60 -70 70 -75 144 -3 64 -2 69 27
100 48 50 100 46 140 -10z m-923 -732 c22 -25 45 -62 51 -83 6 -21 30 -62 52
-91 46 -60 46 -59 23 -84 -41 -45 -150 -5 -215 79 -46 60 -49 143 -7 197 29
37 52 32 96 -18z m-1856 -110 c62 -53 70 -86 39 -162 -31 -74 -121 -126 -105
-61 6 21 1 24 -57 36 -74 16 -83 22 -109 73 -23 46 -19 67 22 105 55 53 153
57 210 9z m2318 -105 l23 -18 -37 -56 c-21 -32 -40 -57 -42 -57 -3 0 -149 114
-167 130 -9 9 57 55 90 62 19 5 88 -27 133 -61z m-1168 -32 c82 -43 111 -209
36 -209 -10 0 -21 -9 -24 -19 -5 -19 -30 -31 -68 -31 -12 0 -39 19 -61 43 -72
76 -82 131 -33 190 28 34 35 37 80 37 28 0 59 -5 70 -11z m1306 -148 c26 -51
28 -66 28 -166 0 -198 11 -256 71 -382 29 -62 62 -127 74 -143 15 -21 21 -41
18 -62 -6 -35 47 -202 83 -263 37 -64 98 -129 180 -192 91 -70 91 -86 1 -120
-109 -42 -102 -44 -160 44 -28 43 -66 93 -83 112 -32 33 -33 33 -97 28 -106
-10 -178 -59 -211 -146 l-19 -46 -78 -13 c-44 -7 -111 -20 -151 -28 -39 -9
-76 -13 -82 -10 -14 9 -93 -28 -145 -68 -23 -17 -71 -47 -107 -66 -35 -18 -88
-51 -117 -74 -29 -23 -83 -63 -120 -89 -141 -100 -152 -124 -133 -262 10 -70
9 -87 -4 -119 -12 -28 -14 -55 -10 -104 14 -147 41 -220 129 -350 85 -126 94
-136 145 -161 51 -27 85 -22 128 18 57 52 67 83 65 214 -2 122 -3 121 43 118
35 -3 113 -32 124 -45 19 -23 -48 -154 -99 -195 -61 -48 -73 -85 -65 -190 4
-47 13 -113 21 -146 l14 -60 -62 -59 c-35 -32 -83 -72 -108 -89 -25 -17 -65
-47 -90 -67 -25 -20 -62 -45 -83 -56 -21 -10 -50 -35 -65 -54 -95 -127 -231
-200 -373 -200 -68 0 -225 107 -357 244 -37 38 -95 98 -129 133 -35 35 -63 69
-63 74 0 6 -13 27 -29 47 -43 55 -59 178 -34 247 7 17 17 62 23 100 6 39 15
95 20 125 5 30 17 105 26 165 9 61 25 144 36 185 38 146 57 226 79 335 23 117
41 165 63 165 7 0 28 3 46 7 l33 6 -7 -80 -7 -81 50 -57 c64 -72 88 -85 165
-85 95 1 144 30 174 106 27 68 23 131 -8 159 -11 10 -20 24 -20 31 0 8 -18 26
-40 40 -40 27 -51 44 -27 44 12 1 63 25 152 74 224 124 268 146 289 146 8 0
27 10 43 23 15 13 53 34 83 46 30 13 87 40 125 61 39 20 84 44 100 53 17 9 56
27 88 41 109 47 242 216 269 341 5 22 12 65 17 95 4 30 15 72 24 94 9 21 17
46 17 56 0 10 7 40 15 66 63 212 63 331 -1 432 -19 29 -34 55 -34 58 0 3 17
31 37 61 l37 56 28 -33 c15 -19 40 -59 55 -89z m-852 -67 c16 -38 18 -115 6
-219 -4 -33 -3 -73 2 -88 14 -43 -8 -60 -33 -27 -32 42 -78 142 -96 208 -21
76 -7 118 48 145 47 24 56 21 73 -19z m698 -29 c32 -50 36 -111 17 -215 -5
-30 -15 -84 -20 -120 -6 -36 -21 -99 -35 -140 -13 -41 -27 -100 -30 -130 -8
-67 -17 -94 -61 -187 -52 -107 -121 -161 -363 -282 -108 -54 -216 -110 -241
-125 -25 -14 -51 -26 -58 -26 -14 0 -165 -73 -184 -90 -82 -70 -388 -190 -485
-190 l-44 0 18 31 c10 18 32 46 49 63 17 17 59 70 93 118 33 48 69 89 79 92 9
2 51 12 92 20 41 9 104 24 140 32 36 9 92 19 125 23 33 4 69 12 80 18 11 5 47
13 80 16 79 8 231 90 317 171 15 14 30 26 34 26 9 0 110 112 147 163 16 22 45
78 64 125 l34 86 -2 190 c-3 207 -3 207 56 281 17 22 36 52 43 68 15 36 22 34
55 -18z m-1622 -58 c58 -39 98 -134 100 -237 2 -113 5 -108 -61 -90 -35 10
-35 10 -36 68 -2 131 -78 174 -200 112 -32 -16 -60 -28 -61 -26 -9 9 41 96 73
126 74 69 131 84 185 47z m550 -38 c14 -6 33 -26 43 -46 17 -35 16 -35 -14
-82 -55 -84 -120 -141 -161 -141 -22 0 -43 45 -60 130 -11 59 -11 59 21 99 45
58 96 70 171 40z m2694 -89 c37 -35 75 -118 75 -164 0 -47 -44 -125 -86 -153
-25 -16 -28 -16 -68 5 -22 12 -51 22 -63 22 -24 0 -67 51 -103 121 -17 32 -17
40 -5 75 8 21 14 46 15 54 4 73 170 101 235 40z m-2061 -26 c78 -44 136 -129
136 -201 0 -47 -28 -68 -91 -68 -36 0 -47 8 -125 86 l-85 86 23 48 c21 45 54
74 84 75 6 0 32 -12 58 -26z m-1246 -47 c17 -20 24 -69 14 -86 -11 -15 -52 -4
-127 34 -52 27 -50 36 15 62 55 22 74 20 98 -10z m-593 -25 c77 -66 139 -240
88 -243 -111 -7 -223 82 -223 178 0 37 5 50 30 73 33 31 62 29 105 -8z m440
-67 c22 -8 61 -22 87 -33 l48 -18 -33 -31 c-17 -17 -44 -33 -59 -37 -67 -16
-135 53 -110 109 13 29 14 29 67 10z m255 -85 c43 -12 33 -68 -24 -134 -49
-58 -156 -136 -186 -136 -55 0 -149 -63 -185 -125 -80 -135 64 -339 237 -337
56 1 58 0 93 -43 52 -62 92 -78 181 -73 l73 5 -31 -46 c-18 -25 -36 -48 -40
-49 -5 -2 -17 -21 -28 -42 -11 -21 -36 -52 -57 -70 l-38 -32 -88 7 c-169 12
-224 30 -289 96 -24 24 -23 32 12 81 34 47 36 55 16 93 -23 44 -51 58 -89 46
-61 -20 -78 -58 -58 -128 11 -37 1 -43 -58 -39 -63 5 -165 138 -186 241 -33
163 -34 198 -9 232 31 41 40 38 54 -14 48 -181 190 -206 221 -38 15 82 -52
175 -126 175 -44 0 -44 12 0 65 19 24 43 64 52 91 18 46 38 64 120 106 13 6
25 19 28 30 8 22 38 24 56 2 24 -29 68 -44 126 -44 63 0 84 12 122 68 24 34
22 33 101 12z m384 -40 c18 -17 50 -37 70 -45 84 -35 306 -1 359 56 35 38 44
29 93 -95 29 -72 30 -105 5 -154 -44 -86 -150 -156 -209 -138 -25 8 -62 93
-62 144 0 30 -8 48 -37 81 -36 43 -37 43 -87 37 -68 -8 -152 -53 -167 -88 -8
-20 -19 -28 -38 -28 -58 -1 -157 -80 -176 -140 -3 -10 10 -59 30 -110 67 -172
68 -220 3 -260 -57 -35 -131 -24 -183 27 l-36 35 22 24 c20 21 23 37 25 118 3
90 2 94 -27 129 -39 47 -50 46 -93 -7 -55 -66 -62 -95 -37 -152 29 -64 28 -68
-20 -61 -117 16 -215 146 -180 239 11 29 103 94 146 104 117 27 250 144 284
252 l14 42 106 0 c58 0 113 5 121 10 24 15 37 12 74 -20z m2628 -70 c78 -25
138 -112 159 -233 20 -118 12 -143 -109 -344 -4 -6 -31 -46 -61 -89 l-54 -77
6 -71 c9 -114 52 -206 97 -206 23 0 105 56 131 88 16 21 19 34 13 62 -20 100
5 161 89 218 83 57 119 44 209 -77 79 -105 138 -343 102 -412 -32 -64 -85
-126 -183 -218 -55 -51 -107 -108 -115 -126 -35 -73 -11 -134 70 -184 89 -55
111 -111 44 -111 -36 0 -90 -21 -107 -42 -16 -19 -28 -99 -19 -132 10 -40 55
-86 84 -86 41 0 112 40 133 74 12 19 19 50 19 79 0 81 45 55 79 -46 27 -77 30
-101 20 -179 -13 -104 -18 -109 -196 -198 -51 -25 -145 -44 -176 -34 -56 17
-81 64 -96 184 -14 99 -32 149 -79 208 -32 39 -34 46 -30 100 6 59 -9 181 -36
291 -16 70 -9 101 23 101 31 0 216 102 260 143 46 42 49 60 25 135 -30 91 -91
99 -199 27 -99 -66 -142 -111 -161 -167 -8 -26 -13 -52 -10 -57 10 -15 -23
-36 -36 -23 -7 7 -21 12 -32 12 -47 0 -171 53 -230 99 -33 27 -77 57 -96 67
l-35 19 60 6 c78 8 118 22 184 61 101 62 125 137 63 201 -35 36 -40 55 -17 64
22 8 74 86 81 120 7 35 -30 179 -55 213 -26 36 -79 47 -121 26 -18 -9 -37 -16
-43 -16 -14 0 -140 -86 -159 -109 -16 -19 -19 -19 -45 -6 -15 8 -43 18 -61 21
-35 7 -51 22 -34 33 16 10 114 204 147 291 30 80 73 137 140 185 23 17 59 43
78 59 85 67 183 86 279 56z m-840 -44 c43 -35 59 -57 81 -110 15 -37 25 -72
22 -77 -10 -16 -63 -10 -110 12 -60 28 -171 131 -161 148 9 14 95 71 107 71 4
0 31 -20 61 -44z m-1755 -214 c73 -56 85 -122 23 -122 -37 0 -56 27 -65 93 -8
53 3 60 42 29z m-997 -37 c16 -9 37 -29 45 -46 15 -28 15 -33 -2 -67 -22 -46
-45 -51 -75 -17 -21 24 -51 129 -40 140 10 10 43 5 72 -10z m515 -85 c9 -15
15 -101 9 -132 -9 -44 -37 -35 -56 16 -18 47 -15 80 10 109 17 19 28 22 37 7z
m1992 -209 c12 -9 23 -21 23 -27 0 -6 7 -18 16 -25 9 -7 31 -37 50 -66 27 -42
40 -53 68 -59 63 -11 161 27 212 84 l31 35 54 -18 c71 -23 77 -30 52 -57 -36
-38 -44 -76 -42 -187 2 -93 -1 -112 -20 -150 l-23 -44 -75 76 c-74 75 -158
127 -206 127 -12 0 -46 -11 -76 -25 l-54 -25 6 -65 c4 -38 2 -65 -3 -65 -16 0
-50 -42 -91 -112 -22 -38 -44 -68 -49 -68 -5 0 -30 13 -57 30 -50 31 -183 70
-238 70 -36 0 -80 -30 -90 -61 -8 -23 17 -115 47 -177 47 -96 139 -135 224
-93 24 11 44 24 44 29 0 12 95 82 111 82 15 0 69 -75 69 -96 0 -7 -5 -16 -10
-19 -6 -4 -19 -23 -29 -43 -11 -22 -45 -55 -82 -82 -35 -25 -97 -78 -137 -119
l-75 -74 -31 17 c-37 19 -103 56 -133 76 -21 14 -23 22 -23 111 0 198 -74 369
-187 436 -63 36 -96 36 -176 0 -81 -37 -81 -41 -12 -152 24 -38 56 -90 71
-115 16 -25 48 -72 72 -105 70 -96 71 -98 25 -90 -30 5 -45 2 -62 -12 -22 -18
-23 -27 -25 -145 -3 -135 -11 -161 -60 -193 -48 -32 -106 11 -200 148 -81 119
-139 325 -106 377 8 12 19 6 62 -36 29 -29 67 -59 85 -68 42 -21 102 -21 110
0 21 56 -12 204 -52 230 -30 20 -97 20 -152 1 -30 -10 -43 -11 -44 -3 0 6 -4
34 -9 61 -12 74 5 106 82 154 35 22 82 57 106 77 73 64 173 123 208 124 6 0
17 -28 24 -62 9 -47 20 -70 45 -95 31 -31 37 -33 105 -33 93 0 131 21 149 82
18 57 15 151 -5 189 -21 42 -10 50 72 52 62 2 69 0 70 -18 10 -122 26 -156 82
-173 70 -21 108 -16 149 21 57 52 48 114 -26 199 -34 39 -49 47 -81 50 l-39 3
20 45 c23 54 45 70 119 86 59 13 83 10 117 -15z m866 15 c26 -20 51 -149 37
-190 -11 -33 -63 -86 -84 -86 -6 0 -32 21 -56 46 -25 26 -69 62 -97 81 -72 46
-74 40 42 117 75 50 122 59 158 32z m-3196 -156 c4 -20 -23 -54 -36 -45 -12 7
-15 48 -4 59 11 11 38 2 40 -14z m-325 -17 c14 -16 38 -53 53 -83 15 -30 34
-59 42 -65 7 -5 15 -26 18 -45 4 -31 -1 -40 -44 -81 -126 -121 -297 -51 -293
120 2 78 17 107 76 146 66 43 112 46 148 8z m3302 -20 c106 -76 137 -116 99
-130 -31 -11 -203 -144 -225 -174 -30 -41 -38 -36 -21 13 9 27 13 74 12 132
-2 99 3 126 34 168 27 36 39 35 101 -9z m-855 -19 c36 -7 81 -64 81 -101 0
-49 -100 -73 -139 -34 -23 23 -36 80 -27 116 7 27 25 31 85 19z m-317 -71 c24
-55 20 -133 -10 -173 -17 -22 -28 -25 -85 -28 -75 -3 -90 9 -108 89 -15 67 11
108 86 136 86 31 93 30 117 -24z m2463 11 c126 -56 147 -202 38 -255 -40 -19
-49 -20 -86 -10 -90 26 -176 113 -141 142 8 7 14 24 14 38 -5 69 -1 82 32 95
35 15 96 10 143 -10z m-1090 -111 c43 -64 35 -88 -45 -135 -78 -45 -149 -62
-215 -52 l-59 9 33 37 c32 36 190 159 221 171 30 11 40 6 65 -30z m-628 -34
c54 -30 162 -131 163 -154 0 -6 -17 -27 -38 -47 -21 -20 -49 -52 -62 -72 -32
-46 -41 -45 -80 4 l-32 41 16 58 c19 69 21 121 3 145 -12 16 -15 16 -57 -3
-57 -26 -66 -26 -74 2 -8 29 25 57 69 57 19 0 60 -14 92 -31z m-1804 -3 c75
-33 121 -102 111 -168 -12 -79 -36 -97 -138 -102 -51 -3 -78 11 -122 63 -59
69 -57 197 2 174 8 -3 22 1 31 8 16 14 62 37 76 38 4 1 22 -5 40 -13z m1727
-116 c0 -34 -14 -39 -30 -11 -15 29 -12 41 10 41 16 0 20 -7 20 -30z m-83 -27
c4 -10 15 -29 25 -42 25 -33 23 -47 -16 -125 -19 -37 -36 -76 -39 -87 -7 -26
-24 -24 -38 4 -6 12 -25 36 -41 54 l-31 32 32 68 c28 60 72 113 94 113 4 0 11
-8 14 -17z m1272 -49 c46 -58 14 -110 -98 -161 -42 -19 -92 -42 -111 -52 -42
-21 -60 -17 -60 14 0 48 46 107 132 166 94 66 108 69 137 33z m-819 -48 c48
-25 126 -69 172 -98 110 -71 130 -80 248 -112 l74 -21 12 -75 c6 -41 17 -93
23 -115 6 -22 14 -76 18 -119 l6 -80 -31 23 c-17 12 -34 26 -37 32 -10 15 -82
49 -107 49 -27 0 -141 -56 -172 -85 -24 -22 -60 -120 -72 -193 -14 -91 -61
-94 -121 -8 -42 62 -45 121 -8 190 14 26 25 58 25 72 0 18 5 24 23 24 40 0
251 79 270 101 33 40 11 102 -55 152 -47 36 -81 47 -178 58 -119 14 -310 78
-310 105 0 19 109 141 128 144 2 0 43 -20 92 -44z m-1260 14 c64 -33 127 -137
145 -241 17 -94 20 -189 6 -189 -15 0 -144 144 -180 201 -18 30 -58 92 -87
139 l-54 85 32 12 c49 17 94 15 138 -7z m408 -7 c71 -13 98 -24 144 -57 32
-23 58 -46 58 -51 0 -6 -32 -39 -72 -74 -65 -57 -75 -63 -106 -57 -56 9 -97
48 -126 121 -29 72 -31 87 -16 116 13 23 10 23 118 2z m511 -92 c26 -36 26
-47 2 -61 -11 -5 -22 -24 -26 -41 -9 -42 56 -195 108 -254 45 -52 45 -60 6
-172 -55 -155 -69 -172 -138 -173 -37 0 -48 5 -77 36 -58 64 -68 96 -49 153
18 56 46 89 87 103 l30 11 -7 61 c-3 33 -18 89 -31 124 l-25 62 26 67 c30 73
53 113 65 113 5 0 18 -13 29 -29z m-1201 -67 c12 -8 22 -23 22 -33 0 -9 5 -22
11 -28 16 -16 7 -77 -12 -81 -20 -4 -149 103 -149 123 0 29 94 43 128 19z
m1327 -19 c70 -40 270 -100 299 -89 30 11 127 -26 169 -65 60 -56 46 -70 -122
-117 -46 -13 -88 -21 -92 -18 -5 3 -9 20 -9 38 0 52 -36 79 -110 80 -57 1 -64
-1 -90 -30 -15 -17 -30 -38 -33 -45 -8 -21 -32 11 -78 105 -46 95 -47 102 -12
138 32 34 27 34 78 3z m-252 -178 c26 -81 23 -100 -20 -129 -40 -27 -83 -112
-83 -164 0 -35 64 -147 103 -180 28 -23 37 -26 94 -22 71 4 117 36 128 89 4
15 15 46 26 68 10 22 19 49 19 60 0 11 8 45 17 76 17 55 18 56 48 50 16 -3 49
-8 73 -12 49 -7 49 -9 21 -88 -12 -33 -23 -85 -26 -116 -5 -51 -3 -61 30 -111
37 -59 70 -88 99 -88 25 0 31 -16 23 -60 -9 -56 -38 -89 -62 -72 -55 38 -108
54 -182 54 -69 0 -77 -2 -98 -26 -48 -57 -25 -205 39 -250 25 -18 83 -21 93
-6 3 6 14 10 23 10 10 0 40 23 67 50 27 28 53 50 58 50 4 0 16 -19 27 -42 22
-53 36 -128 22 -128 -5 0 -17 -16 -26 -35 -21 -44 -66 -78 -138 -105 -31 -11
-72 -31 -90 -44 -124 -84 -247 -73 -436 40 -124 74 -169 94 -218 94 -63 0
-135 43 -244 147 -55 52 -100 99 -100 104 0 5 12 14 26 19 21 8 31 5 64 -21
29 -23 53 -33 90 -37 66 -6 95 14 127 86 14 31 26 58 28 60 1 1 26 -13 55 -33
29 -19 69 -38 90 -41 24 -4 49 -17 66 -35 24 -25 35 -29 80 -29 65 0 100 13
109 39 6 19 -42 177 -72 234 -16 31 -128 144 -183 185 -19 14 -39 31 -45 37
-5 5 -22 18 -37 28 -16 10 -28 22 -28 28 0 16 119 129 184 174 31 22 73 64 93
93 20 28 39 52 42 52 3 0 14 -24 24 -53z m436 -72 c24 -23 6 -45 -31 -39 -68
11 -78 15 -78 29 0 34 76 41 109 10z m-1000 -174 c17 -21 31 -42 31 -46 0 -5
13 -35 29 -69 16 -34 36 -86 46 -116 47 -152 45 -140 26 -179 -10 -20 -21 -48
-25 -63 -14 -60 -90 -72 -137 -22 -21 22 -21 25 -6 42 10 10 17 22 17 26 0 4
9 19 20 34 25 34 18 91 -15 122 -20 19 -24 19 -58 5 -48 -20 -90 -89 -82 -135
4 -23 1 -38 -11 -51 -16 -18 -40 -17 -29 1 3 5 -2 50 -11 99 -23 127 -15 169
39 208 30 21 53 51 81 106 22 43 43 77 47 77 4 0 21 -18 38 -39z m1455 4 c112
-76 112 -76 61 -145 -49 -66 -72 -79 -205 -111 -95 -23 -113 -23 -107 -3 3 11
10 37 16 59 5 22 15 62 22 88 16 65 87 122 170 136 3 1 23 -10 43 -24z m-1326
-59 c-5 -32 -23 -28 -41 9 -22 47 -22 47 13 27 20 -11 30 -24 28 -36z m1935
34 c-8 -76 -15 -91 -53 -116 -43 -29 -61 -27 -84 9 -14 21 -9 72 10 95 20 25
130 35 127 12z m-1802 -112 c34 -29 73 -62 88 -73 34 -26 115 -114 129 -141 6
-12 20 -53 31 -92 l20 -72 -27 -7 c-17 -4 -36 0 -56 12 -52 30 -99 52 -147 69
-47 17 -99 73 -99 107 0 7 -9 43 -20 77 -29 91 -26 172 6 172 7 0 41 -24 75
-52z m-1996 -218 c14 -13 25 -28 25 -33 0 -6 7 -18 15 -27 10 -11 16 -41 18
-84 l2 -67 -56 -40 c-55 -40 -57 -40 -103 -28 -64 16 -101 53 -121 123 -36
123 20 191 148 182 33 -2 55 -10 72 -26z m1685 8 c0 -26 -25 -78 -37 -78 -18
0 -16 41 3 68 16 24 34 29 34 10z m1033 -144 l38 -25 -53 -51 c-45 -44 -100
-78 -125 -78 -14 0 -44 65 -45 96 -1 59 17 82 64 87 57 4 76 0 121 -29z m1262
-18 c95 -25 108 -54 67 -146 -36 -80 -84 -119 -147 -119 -86 -1 -165 63 -184
148 -10 46 2 64 23 35 18 -24 46 -11 46 21 0 17 7 29 23 35 12 5 33 18 47 30
27 22 31 21 125 -4z m-1007 -259 c81 -24 152 -100 152 -163 0 -38 -38 -75
-100 -97 -61 -22 -93 -13 -151 44 -55 53 -61 81 -29 122 11 14 20 29 20 34 0
6 11 15 25 21 15 7 25 20 25 32 0 23 2 24 58 7z m-964 -117 c62 -28 82 -73 65
-145 -15 -62 -25 -77 -77 -115 -50 -36 -101 -39 -149 -10 -44 27 -55 51 -61
146 -5 89 -2 96 57 137 32 23 99 17 165 -13z m-1119 -223 c55 -31 85 -79 85
-137 0 -31 -6 -52 -17 -63 -51 -48 -92 -76 -119 -82 -16 -4 -37 -9 -46 -11
-17 -5 -88 50 -88 69 0 6 -6 18 -14 26 -8 9 -18 39 -21 67 -6 45 -4 53 20 82
29 35 96 70 135 71 14 0 43 -9 65 -22z"/>
<path d="M4654 5325 c-9 -22 3 -45 20 -39 17 6 29 32 20 45 -8 14 -34 11 -40
-6z"/>
<path d="M1845 4520 c-17 -19 -17 -22 -3 -36 14 -14 17 -14 32 1 20 20 20 29
3 44 -11 8 -18 6 -32 -9z"/>
<path d="M3076 4341 c-10 -16 6 -42 23 -39 25 5 27 48 2 48 -11 0 -22 -4 -25
-9z"/>
<path d="M5787 3933 c-12 -11 -8 -40 7 -52 11 -9 18 -8 30 4 20 20 20 20 0 39
-17 17 -27 20 -37 9z"/>
<path d="M1905 2814 c-18 -19 -16 -33 7 -48 18 -11 48 7 48 30 0 24 -37 36
-55 18z"/>
<path d="M3967 2784 c-11 -12 -8 -41 6 -53 22 -17 55 12 41 36 -12 19 -36 28
-47 17z"/>
<path d="M6513 2743 c-18 -7 -16 -42 3 -50 20 -8 49 21 41 41 -6 16 -21 19
-44 9z"/>
<path d="M2986 2547 c-25 -18 -6 -58 23 -50 25 6 35 31 20 49 -14 17 -21 17
-43 1z"/>
<path d="M2286 1387 c-23 -17 -17 -51 9 -55 27 -4 51 34 34 54 -14 17 -20 17
-43 1z"/>
<path d="M6252 1271 c-21 -13 -11 -55 14 -59 26 -4 38 22 24 49 -12 21 -18 23
-38 10z"/>
<path d="M5336 985 c-20 -20 -20 -29 -1 -45 20 -16 47 5 43 33 -4 27 -22 32
-42 12z"/>
<path d="M4257 883 c-13 -13 -7 -51 9 -57 37 -14 59 35 25 54 -23 12 -26 12
-34 3z"/>
<path d="M3152 671 c-20 -12 -10 -46 13 -46 14 0 21 8 23 28 3 28 -10 35 -36
18z"/>
</g>
</svg>
