<?xml version="1.0" standalone="no"?>
<!DOCTYPE svg PUBLIC "-//W3C//DTD SVG 20010904//EN"
 "http://www.w3.org/TR/2001/REC-SVG-20010904/DTD/svg10.dtd">
<svg version="1.0" xmlns="http://www.w3.org/2000/svg"
 width="371.000000pt" height="432.000000pt" viewBox="0 0 371.000000 432.000000"
 preserveAspectRatio="xMidYMid meet">
<metadata>
Created by potrace 1.16, written by Peter Selinger 2001-2019
</metadata>
<g transform="translate(0.000000,432.000000) scale(0.100000,-0.100000)"
fill="#000000" stroke="none">
<path d="M887 3897 c-23 -19 -63 -78 -65 -97 0 -3 -5 -18 -11 -33 -6 -16 -11
-34 -11 -40 0 -7 -14 -65 -30 -131 -28 -112 -41 -233 -44 -424 -1 -54 -6 -61
-25 -38 -6 7 -31 19 -54 26 -45 12 -64 6 -180 -56 -52 -29 -73 -131 -41 -200
30 -62 76 -91 142 -89 31 1 67 7 79 13 40 22 46 16 39 -37 -4 -28 -13 -66 -21
-85 -8 -19 -15 -51 -15 -69 0 -19 -7 -54 -15 -78 -9 -24 -20 -75 -25 -114 -6
-38 -13 -86 -16 -105 -11 -63 -9 -162 3 -179 7 -9 13 -28 13 -43 0 -15 6 -42
14 -60 32 -74 45 -165 31 -215 -17 -67 -39 -116 -58 -132 -10 -7 -17 -19 -17
-25 0 -6 -7 -24 -16 -41 -20 -37 -34 -172 -23 -223 4 -20 17 -71 28 -112 12
-41 27 -98 35 -127 20 -72 46 -123 62 -123 8 0 23 -9 33 -19 10 -10 38 -22 62
-26 82 -14 122 -44 95 -73 -45 -51 -59 -158 -30 -231 41 -102 180 -146 251
-79 27 25 56 120 51 165 -2 18 -1 33 3 33 11 0 99 -104 99 -117 0 -15 134
-154 170 -176 55 -34 164 -31 201 5 8 8 35 26 61 41 l47 27 15 -22 c9 -12 16
-29 16 -36 0 -18 39 -73 65 -92 51 -38 285 -84 300 -59 4 5 26 9 49 9 101 0
184 100 158 189 -6 20 -14 47 -18 61 -11 38 -80 98 -122 106 -109 18 -165 80
-200 219 -27 109 -36 194 -23 241 36 138 36 136 15 151 -25 18 -48 13 -52 -12
-2 -11 -15 -50 -28 -87 -30 -79 -77 -124 -186 -176 -130 -63 -192 -68 -318
-25 -43 15 -130 63 -130 72 0 6 -8 12 -18 16 -24 7 -67 94 -96 194 -30 99 -28
233 4 336 12 39 25 72 29 75 17 12 101 169 101 188 0 11 4 23 10 27 9 6 8 24
-8 135 -11 72 -43 155 -81 214 -15 21 -31 46 -36 55 -6 9 -24 36 -40 61 -36
55 -65 126 -65 160 0 15 -4 30 -10 36 -14 14 -25 409 -12 469 22 108 131 403
160 433 6 7 12 16 12 20 0 4 21 29 46 56 l46 49 52 -26 c29 -15 61 -27 70 -27
9 0 34 -11 55 -25 22 -13 50 -26 63 -29 13 -2 43 -11 68 -20 97 -33 150 -46
190 -46 23 0 50 -5 60 -10 34 -18 72 -2 68 29 -3 25 -6 26 -100 37 -54 6 -110
16 -125 22 -16 5 -50 16 -77 23 -64 16 -259 104 -264 118 -2 6 14 18 35 27 21
8 47 19 58 23 152 66 408 88 530 48 84 -28 107 -39 130 -58 11 -9 47 -31 80
-49 135 -74 221 -149 306 -267 47 -65 51 -79 64 -221 6 -64 -89 -113 -208
-107 -40 2 -101 5 -137 7 -57 3 -71 7 -105 36 -22 17 -43 32 -47 32 -5 0 -26
11 -47 24 -84 53 -235 82 -318 60 -64 -16 -119 -39 -128 -54 -3 -5 -25 -18
-49 -29 -60 -26 -94 -74 -129 -177 -53 -161 -45 -369 20 -543 17 -45 105 -141
129 -141 7 0 18 -8 23 -19 10 -18 89 -54 146 -66 59 -12 69 -28 52 -77 -9 -24
-19 -65 -22 -93 -6 -50 -21 -106 -35 -135 -5 -10 -19 -14 -48 -12 -38 3 -110
-15 -158 -39 -74 -38 -107 -273 -48 -340 63 -71 242 85 284 249 13 51 19 52
131 16 70 -22 90 -33 131 -76 26 -27 48 -53 48 -58 0 -15 93 -150 104 -151 6
0 28 -22 49 -49 22 -30 55 -58 84 -72 45 -22 47 -25 64 -96 23 -92 46 -143 95
-212 94 -132 153 -160 292 -141 96 12 154 42 195 98 16 24 39 45 49 49 24 7
174 158 216 218 18 25 50 57 72 71 35 22 63 76 47 91 -17 17 -108 -63 -236
-205 -41 -46 -92 -94 -113 -108 -21 -14 -38 -32 -38 -40 0 -8 -4 -11 -10 -8
-5 3 -10 2 -10 -3 0 -19 -58 -70 -100 -86 -25 -10 -77 -20 -117 -22 -65 -3
-77 -1 -117 24 -26 15 -50 40 -57 57 -7 17 -28 48 -46 71 -39 48 -68 113 -78
170 l-6 41 54 5 c71 6 196 65 226 106 12 17 28 56 36 86 14 52 13 57 -10 109
-36 83 -62 104 -138 112 -105 11 -147 -17 -202 -137 -13 -29 -26 -75 -29 -103
-2 -27 -5 -53 -5 -57 -5 -43 -119 67 -189 182 -92 151 -119 170 -310 220 l-43
11 7 62 c3 34 14 87 24 117 10 30 20 66 22 80 2 21 7 25 33 22 83 -9 252 -5
275 6 60 31 76 43 92 74 63 116 -57 236 -233 234 l-80 -1 -44 -48 c-24 -27
-52 -71 -62 -99 l-18 -50 -40 7 c-22 4 -55 9 -72 12 -18 3 -33 9 -33 14 0 5
-24 24 -52 43 -89 57 -118 99 -153 219 -48 166 3 478 87 530 69 43 200 105
215 102 202 -43 264 -64 311 -111 21 -21 16 -44 -7 -30 -5 4 -32 -12 -61 -35
-118 -93 -135 -262 -32 -307 36 -15 49 -16 434 -21 62 -1 53 7 106 -96 50 -97
72 -183 72 -278 0 -90 66 -197 136 -221 53 -18 67 -14 116 33 65 60 81 110 75
221 -8 134 -26 178 -99 245 -53 48 -91 71 -173 105 -33 14 -99 34 -118 35 -17
2 -68 42 -76 60 -2 6 -31 37 -63 71 -32 33 -58 65 -58 71 0 6 -21 29 -47 52
l-47 40 114 -5 c112 -6 117 -5 180 24 110 50 132 93 110 213 -16 90 -70 195
-125 244 -6 6 -24 27 -39 48 -16 20 -33 37 -38 37 -8 0 -104 74 -118 91 -3 4
-25 17 -50 29 -25 13 -64 36 -87 51 -23 16 -44 29 -47 29 -4 0 -25 8 -49 19
-52 23 -106 37 -173 46 -54 7 -269 -10 -319 -25 -16 -5 -50 -14 -75 -21 -62
-17 -164 -64 -179 -83 -8 -9 -18 -16 -23 -16 -10 0 -74 48 -113 83 -30 28 -92
53 -174 71 -89 19 -80 20 -114 -7z m202 -80 c51 -26 141 -102 141 -119 0 -5
-17 -27 -39 -51 -50 -55 -102 -167 -161 -348 -70 -215 -80 -400 -35 -684 7
-49 49 -159 73 -192 30 -42 28 -53 -10 -53 -34 0 -86 -16 -125 -38 -73 -41
-74 -182 -2 -298 38 -62 116 -90 172 -62 39 19 87 97 87 141 0 10 4 16 9 13 7
-5 12 -21 27 -93 4 -24 -20 -88 -59 -152 -131 -217 -142 -459 -29 -676 25 -49
119 -144 150 -151 15 -4 46 -15 70 -26 60 -27 207 -46 233 -30 10 7 28 12 39
12 25 0 201 86 216 105 15 21 36 19 33 -3 -8 -47 57 -239 102 -303 26 -37 92
-79 141 -90 84 -19 128 -76 128 -165 0 -51 -51 -82 -153 -96 -88 -12 -117 -7
-234 40 -48 19 -72 56 -98 153 -20 74 -56 89 -84 35 -21 -38 -142 -106 -190
-106 -55 0 -123 57 -223 188 -82 108 -170 184 -239 206 -26 9 -89 36 -139 60
-50 25 -97 43 -105 40 -26 -10 -92 46 -118 100 -39 81 -66 227 -61 316 3 41 5
87 4 103 0 32 19 72 54 114 71 84 76 206 17 373 -54 153 -53 254 9 490 17 66
43 177 55 235 2 11 8 34 14 50 26 80 33 140 26 233 -10 149 20 493 47 528 5 7
13 36 18 65 4 30 21 80 36 113 l27 59 62 -5 c39 -4 82 -15 114 -31z m-443
-720 c12 -7 34 -26 48 -44 26 -31 26 -33 11 -62 -8 -17 -15 -39 -15 -49 0 -36
-65 -72 -129 -72 -54 0 -83 34 -89 104 l-4 54 53 40 c56 42 89 50 125 29z
m1573 -116 c73 -76 127 -139 144 -167 9 -16 -11 -18 -238 -15 -175 3 -185 8
-185 90 0 42 4 51 45 91 41 41 109 78 144 79 8 1 48 -35 90 -78z m398 -311
c34 -16 66 -30 71 -30 20 -2 102 -91 123 -135 29 -61 33 -206 7 -244 -41 -58
-106 -80 -145 -49 -26 21 -52 96 -59 173 -7 87 -34 205 -51 227 -8 11 -33 73
-33 84 0 10 29 1 87 -26z m-540 -231 c186 -79 104 -214 -117 -189 -96 10 -113
18 -105 43 4 12 9 34 12 49 3 15 11 33 19 39 8 6 14 17 14 24 0 22 34 43 75
48 22 2 43 4 47 5 3 1 28 -7 55 -19z m-949 -149 c44 -41 12 -209 -49 -258 -27
-22 -28 -22 -59 -5 -46 26 -79 91 -87 171 -3 39 0 47 31 78 30 30 40 34 88 34
41 0 60 -5 76 -20z m546 -428 c3 -5 -3 -37 -12 -73 -14 -57 -23 -71 -81 -126
-36 -35 -70 -63 -76 -63 -34 0 -45 69 -25 155 11 50 69 102 119 108 20 2 44 4
53 5 9 1 19 -2 22 -6z m943 -174 c32 -44 33 -49 23 -88 -11 -41 -19 -51 -79
-102 -34 -28 -148 -62 -175 -52 -27 10 -22 121 9 189 55 120 157 145 222 53z
m-1642 -778 c3 -5 15 -10 26 -10 37 0 58 -39 59 -106 0 -135 -65 -173 -155
-90 l-48 45 7 53 c7 54 32 92 71 108 27 12 33 12 40 0z"/>
<path d="M583 3023 c-15 -5 -17 -49 -4 -57 19 -12 42 7 39 32 -3 26 -14 34
-35 25z"/>
<path d="M1013 2273 c-28 -11 -2 -73 31 -73 21 0 37 39 24 63 -8 16 -30 21
-55 10z"/>
<path d="M945 800 c-4 -6 1 -22 9 -36 14 -20 20 -22 36 -14 21 11 24 19 14 44
-7 18 -49 22 -59 6z"/>
</g>
</svg>
