<?xml version="1.0" standalone="no"?>
<!DOCTYPE svg PUBLIC "-//W3C//DTD SVG 20010904//EN"
 "http://www.w3.org/TR/2001/REC-SVG-20010904/DTD/svg10.dtd">
<svg version="1.0" xmlns="http://www.w3.org/2000/svg"
 width="358.000000pt" height="885.000000pt" viewBox="0 0 358.000000 885.000000"
 preserveAspectRatio="xMidYMid meet">
<metadata>
Created by potrace 1.16, written by Peter Selinger 2001-2019
</metadata>
<g transform="translate(0.000000,885.000000) scale(0.100000,-0.100000)"
fill="#000000" stroke="none">
<path d="M3111 8426 c-25 -29 -35 -120 -23 -192 19 -112 33 -349 23 -378 -20
-52 -178 -50 -258 4 -69 47 -201 101 -247 102 -54 1 -90 -39 -80 -86 20 -93
103 -193 187 -225 117 -45 152 -70 202 -146 34 -53 51 -95 60 -158 9 -56 0
-74 -41 -80 -44 -7 -114 32 -242 136 -45 37 -87 67 -92 67 -6 0 -31 15 -57 33
-27 19 -84 49 -128 67 -44 18 -90 37 -102 43 -33 15 -114 15 -143 0 -72 -35
-82 -101 -35 -228 31 -85 65 -137 125 -190 93 -83 352 -352 380 -394 51 -76
36 -104 -53 -96 -31 3 -73 9 -94 14 -21 6 -64 17 -96 25 -78 20 -158 75 -240
166 -173 191 -191 210 -222 220 -63 21 -115 -12 -115 -72 0 -45 43 -138 121
-265 134 -216 295 -348 516 -424 94 -32 105 -58 53 -124 -38 -48 -66 -65 -154
-93 -150 -49 -332 -22 -499 76 -69 40 -93 39 -89 -3 4 -39 6 -40 130 -137 217
-168 342 -315 465 -548 53 -100 127 -269 127 -291 0 -6 9 -23 20 -37 11 -15
45 -63 75 -107 65 -96 131 -191 210 -305 172 -249 226 -454 159 -609 -50 -114
-113 -133 -298 -86 -159 41 -252 102 -344 226 -224 302 -267 354 -494 602
-137 149 -191 229 -181 267 3 11 22 35 42 53 58 53 105 135 142 252 33 104 29
118 -42 150 -53 23 -70 26 -113 21 -28 -4 -85 -11 -126 -16 -164 -19 -240 -64
-240 -141 0 -34 -3 -37 -32 -43 -43 -9 -70 -33 -86 -77 -16 -46 -15 -71 4
-149 20 -83 49 -118 110 -129 78 -15 134 28 134 102 0 50 7 46 71 -38 58 -77
148 -182 250 -291 91 -98 113 -146 107 -237 -8 -116 -90 -251 -172 -282 -43
-17 -45 -17 -83 5 -21 12 -57 45 -81 73 -113 136 -317 352 -362 383 -48 33
-97 32 -106 -2 -27 -108 77 -271 231 -359 111 -64 166 -112 225 -200 74 -110
87 -180 40 -205 -16 -8 -30 -6 -64 8 -41 19 -66 41 -157 145 -50 56 -79 73
-133 76 -45 2 -80 -18 -101 -59 -20 -39 -3 -82 63 -158 26 -30 66 -80 90 -111
70 -93 173 -191 234 -222 74 -38 117 -109 66 -109 -39 0 -124 50 -211 126
-145 125 -207 155 -259 128 l-30 -16 7 -76 c15 -161 78 -262 300 -480 85 -84
155 -157 155 -162 0 -5 -12 -12 -27 -16 -16 -3 -33 -7 -38 -9 -24 -7 -132 18
-184 42 -69 32 -92 50 -206 163 -98 96 -128 112 -133 68 -4 -35 84 -219 137
-285 34 -44 208 -200 314 -283 82 -63 132 -120 117 -130 -8 -5 -22 -8 -30 -5
-8 2 -37 7 -65 10 -59 8 -88 17 -175 57 -120 55 -152 73 -180 101 -21 22 -35
28 -61 25 l-34 -3 2 -75 c2 -126 65 -249 194 -383 49 -50 91 -102 94 -116 18
-83 -91 -237 -153 -216 -9 3 -70 57 -135 119 -121 117 -156 138 -196 116 -19
-10 -20 -18 -17 -138 5 -185 19 -218 153 -350 57 -57 113 -118 123 -135 37
-60 18 -94 -31 -58 -15 11 -32 21 -36 21 -11 0 -103 80 -103 90 0 4 -17 25
-37 47 -21 21 -54 68 -73 103 -36 65 -80 102 -115 98 -38 -5 -25 -71 38 -183
31 -55 70 -141 86 -191 16 -50 40 -113 54 -139 31 -57 30 -61 -48 -173 -52
-76 -75 -93 -75 -56 0 27 -74 91 -113 98 -49 9 -83 -8 -125 -64 -33 -43 -34
-46 -27 -108 16 -151 74 -216 170 -190 24 7 47 10 50 7 3 -3 -1 -28 -9 -55
-17 -57 -27 -132 -30 -212 -1 -31 -12 -86 -24 -122 -12 -36 -27 -84 -32 -108
-6 -24 -18 -46 -26 -49 -21 -8 -17 -46 8 -62 29 -18 40 -2 68 93 11 39 27 85
35 101 20 46 25 78 26 168 0 45 9 118 19 162 10 44 21 109 25 145 8 76 64 181
162 303 31 38 29 64 -10 139 -19 34 -44 99 -58 143 -22 73 -66 167 -113 238
-10 15 -14 27 -8 27 9 0 53 -61 64 -90 20 -53 200 -230 233 -230 7 0 18 -7 25
-15 16 -20 50 -19 79 1 20 15 23 22 17 60 -10 78 -48 135 -134 205 -91 73
-137 138 -152 218 -13 68 -13 198 0 206 10 6 84 -58 192 -165 74 -75 107 -88
160 -65 57 25 88 62 127 150 40 89 19 188 -48 228 -80 47 -176 182 -211 296
-33 105 -26 121 33 77 63 -47 239 -125 327 -145 95 -22 178 -6 195 36 7 20
-89 118 -217 220 -204 162 -312 282 -334 369 -7 28 -6 28 45 -18 79 -71 173
-135 232 -159 75 -29 185 -37 227 -15 48 25 64 63 38 88 -203 194 -355 354
-383 406 -57 101 -87 212 -70 257 10 26 62 -3 176 -97 122 -99 226 -166 262
-167 15 -1 36 7 48 17 61 50 17 144 -93 201 -70 36 -133 98 -251 246 -116 146
-129 177 -79 196 46 17 86 -5 165 -93 124 -137 208 -172 271 -111 50 48 30
139 -60 270 -71 102 -124 149 -231 202 -78 40 -148 108 -184 180 -30 62 -36
111 -12 111 20 0 140 -112 225 -209 226 -259 251 -281 312 -281 128 0 270 220
256 394 -3 31 -2 56 2 56 3 0 31 -30 61 -66 30 -36 69 -82 87 -102 19 -21 81
-104 139 -185 171 -239 243 -295 452 -353 156 -43 243 -30 308 46 37 43 43 58
58 141 31 173 -40 383 -205 611 -106 147 -213 309 -207 314 3 3 14 1 25 -5 22
-12 85 -4 124 15 38 19 78 109 78 174 0 65 -18 107 -62 146 -33 29 -40 31 -89
26 -30 -2 -58 -8 -64 -13 -5 -5 -16 -9 -25 -9 -14 0 -50 -36 -85 -85 l-14 -20
-15 20 c-8 11 -18 31 -21 45 -4 14 -14 36 -23 50 -9 14 -29 50 -45 80 -81 158
-217 330 -372 468 -55 49 -64 60 -40 51 59 -21 187 -40 243 -35 79 6 145 17
157 26 6 4 28 13 50 20 156 49 224 247 96 280 -201 52 -418 203 -504 353 -13
23 -47 79 -74 125 -57 94 -91 188 -75 204 29 29 91 -19 222 -171 131 -152 183
-190 318 -227 203 -55 260 -54 288 4 27 58 1 124 -89 219 -78 84 -226 231
-324 323 -60 57 -75 80 -114 185 -53 141 15 198 162 136 41 -17 79 -31 85 -31
6 0 29 -12 50 -27 22 -16 55 -37 74 -48 37 -20 74 -47 185 -136 64 -51 125
-86 181 -103 57 -18 119 48 115 123 -2 50 -36 156 -58 182 -7 8 -13 20 -13 25
0 25 -98 109 -159 136 -36 16 -75 34 -86 39 -53 26 -125 116 -125 157 0 22 38
38 54 22 6 -6 18 -10 27 -10 21 0 98 -40 143 -73 64 -48 131 -67 220 -63 46 2
93 9 105 16 48 25 61 105 41 243 -6 38 -12 96 -15 130 -2 34 -7 89 -10 123 -3
33 -1 72 4 86 6 17 6 39 0 62 -11 39 -20 44 -38 22z m-1344 -2822 c22 -14 24
-21 19 -56 -13 -80 -64 -179 -126 -244 -59 -61 -77 -97 -67 -134 3 -13 0 -20
-9 -20 -8 0 -14 3 -14 8 0 4 -40 61 -89 127 -119 158 -150 218 -130 254 22 39
82 63 194 77 117 15 188 11 222 -12z m982 -165 c38 -48 45 -111 20 -169 -40
-93 -141 -88 -197 9 -20 35 -27 116 -11 129 8 6 28 23 44 36 45 38 112 35 144
-5z m-1415 -66 c56 -77 59 -192 6 -206 -74 -19 -158 175 -100 233 32 32 56 25
94 -27z m-742 -4070 c27 -31 45 -93 28 -93 -6 0 -8 -23 -6 -52 4 -69 -8 -95
-48 -101 -62 -9 -104 43 -112 136 -4 50 -1 66 13 83 40 45 98 58 125 27z"/>
<path d="M2656 5321 c-20 -22 -20 -35 -1 -51 20 -16 45 3 45 35 0 30 -24 38
-44 16z"/>
<path d="M1277 5324 c-13 -13 -7 -55 8 -60 21 -9 47 15 43 40 -3 21 -37 34
-51 20z"/>
<path d="M506 1234 c-11 -29 -6 -44 14 -44 25 0 36 25 20 45 -16 19 -26 19
-34 -1z"/>
</g>
</svg>
